<svg width="211" height="80" viewBox="0 0 211 80" fill="none" xmlns="http://www.w3.org/2000/svg">
<g clip-path="url(#clip0_1983_13360)">
<path d="M82.5818 17.2857C83.2408 17.2857 83.7163 16.7894 83.7163 16.1011C83.7163 15.5714 83.2617 15 82.5818 15C82.2565 15 81.9561 15.121 81.7393 15.3461C81.5307 15.5631 81.4181 15.8508 81.4306 16.1595C81.4515 16.8352 81.9144 17.2857 82.5818 17.2857Z" fill="white"/>
<path d="M80.7942 29.3463L80.3353 29.4005L80.2645 29.4298L80.2311 29.4631C80.0768 29.6175 80.0976 29.8552 80.1102 29.926C80.1352 30.0846 80.2144 30.2056 80.3479 30.2723L80.4021 30.2848H80.4355C81.2739 30.2514 81.862 30.2306 82.5711 30.2306C83.2801 30.2306 83.8349 30.2473 84.6733 30.2806H84.6983L84.7567 30.2723L84.79 30.2556C84.9777 30.1597 85.007 29.9177 85.0111 29.8426C85.0236 29.6592 84.961 29.509 84.8484 29.4298L84.8234 29.413L84.3229 29.3422C83.5345 29.2462 83.4886 29.242 83.4886 27.411V21.3504C83.4886 19.5443 83.5221 19.4693 84.3146 19.4026L84.765 19.365L84.8193 19.3483L84.8484 19.3275C84.9653 19.2525 85.0236 19.1022 85.0111 18.9145C84.9986 18.7185 84.9152 18.5642 84.765 18.4891L84.7107 18.4766H84.6774C83.8849 18.5099 83.2885 18.5308 82.5752 18.5308C81.862 18.5308 81.2572 18.5141 80.4146 18.4808L80.3604 18.4891L80.327 18.5058C80.1393 18.6018 80.1102 18.8436 80.1059 18.9145C80.0935 19.1022 80.1519 19.2525 80.2853 19.34L80.3186 19.365L80.8067 19.4026C81.6034 19.4693 81.6326 19.5443 81.6326 21.3504V27.411C81.6326 29.242 81.5867 29.2503 80.7983 29.3422L80.7942 29.3463Z" fill="white"/>
<path d="M92.4406 23.6666L91.0767 22.8115C90.5761 22.5029 89.7377 21.8438 89.7377 20.9179C89.7377 20.3006 89.9714 19.2619 91.5313 19.2619C92.9578 19.2619 93.3874 20.1463 93.6335 21.043L93.6585 21.0931L93.6668 21.1014C93.742 21.1931 93.8588 21.2433 94.0005 21.2433C94.1591 21.2433 94.3635 21.1807 94.4802 21.0097L94.5011 20.9471V20.9054C94.5011 20.1379 94.3342 19.1535 94.1799 18.7489L94.1257 18.5988H93.963C93.8504 18.5988 93.6294 18.5695 93.4291 18.5028C93.0162 18.3944 92.3697 18.2734 91.7858 18.2734C89.5709 18.2734 88.0819 19.5456 88.0819 21.4351C88.0819 22.9575 89.1372 23.9711 90.0256 24.555L91.6439 25.6102C92.7784 26.3402 92.9327 27.091 92.9327 27.796C92.9327 28.6551 92.3446 29.5228 91.0349 29.5228C89.3749 29.5228 88.6492 28.2338 88.3238 27.1327L88.3029 27.091C88.2321 26.9867 88.1111 26.9283 87.9568 26.9283C87.8191 26.9283 87.6231 26.9826 87.4938 27.1619L87.4688 27.2329V27.2829C87.5062 28.0796 87.7274 29.3392 87.9692 29.7896L88.0109 29.8356L88.0443 29.8565C88.3863 30.0566 89.3416 30.5154 90.8181 30.5154C93.1247 30.5154 94.6762 29.1598 94.6762 27.1369C94.6762 25.7354 93.9464 24.6009 92.4406 23.6707V23.6666Z" fill="white"/>
<path d="M108.173 18.2891L108.152 18.2433C108.065 18.064 107.84 18.0473 107.748 18.0473C107.698 18.0473 107.623 18.0514 107.518 18.0931L107.46 18.139L107.435 18.1765C107.252 18.4977 107.227 18.5394 106.309 18.5394H99.2808C98.5049 18.5394 98.2547 18.4935 98.1921 18.1724L98.1629 18.1098L98.1337 18.0806C98.067 18.0139 97.9668 17.9805 97.8251 17.9805C97.7625 17.9805 97.6124 17.9888 97.4788 18.0764L97.4247 18.1474L97.4163 18.2057C97.2995 18.8731 97.0493 19.9409 96.7656 20.7417V20.8335L96.7906 20.8877C96.874 21.0587 97.0868 21.1756 97.3037 21.1756C97.408 21.1756 97.5081 21.1463 97.5998 21.0754L97.6415 21.0254L97.6582 20.992C97.8251 20.6083 97.9835 20.2453 98.3672 19.8992C98.7176 19.578 99.5853 19.5363 100.303 19.5363H101.241C101.358 19.5363 101.483 19.5363 101.503 19.5488C101.521 19.578 101.521 19.7156 101.521 19.8533V27.4613C101.521 29.2841 101.425 29.2924 100.678 29.3591L100.031 29.4175L99.9732 29.4384L99.9601 29.4467C99.8275 29.5301 99.7521 29.6928 99.7602 29.8805C99.7692 30.064 99.8526 30.2142 100.002 30.2892L100.057 30.3017H100.09C101.129 30.2683 101.75 30.2517 102.451 30.2517C103.114 30.2517 103.648 30.2683 104.674 30.3017H104.695L104.753 30.2934L104.786 30.2767C104.974 30.1808 105.003 29.9347 105.007 29.8638C105.02 29.6802 104.962 29.5301 104.845 29.4508L104.82 29.4342L104.194 29.3632C103.431 29.2965 103.385 29.2924 103.385 27.4654V19.8158C103.385 19.7198 103.385 19.6031 103.393 19.5446C103.452 19.5363 103.568 19.5363 103.648 19.5363H104.857C105.746 19.5363 106.347 19.6615 106.693 19.9159C106.793 19.9909 106.943 20.3205 107.027 21.0254L107.052 21.088L107.081 21.1213C107.164 21.2214 107.306 21.2756 107.469 21.2756C107.669 21.2756 107.836 21.188 107.923 21.017L107.936 20.9544V20.9169C107.886 20.433 108.002 19.0817 108.19 18.3768V18.2934L108.173 18.2891Z" fill="white"/>
<path d="M112.549 17.2857C113.218 17.2857 113.684 16.7978 113.684 16.1011C113.684 15.5714 113.23 15 112.549 15C112.22 15 111.92 15.1251 111.707 15.3461C111.498 15.5631 111.39 15.8508 111.399 16.1595C111.419 16.8352 111.882 17.2857 112.549 17.2857Z" fill="white"/>
<path d="M114.294 19.4142L114.744 19.3767L114.798 19.36L114.827 19.3391C114.994 19.2265 114.994 19.0097 114.99 18.9262C114.986 18.8511 114.957 18.6092 114.744 18.5007L114.69 18.4883H114.656C113.864 18.5216 113.268 18.5424 112.554 18.5424C111.841 18.5424 111.236 18.5258 110.394 18.4924L110.34 18.5007L110.306 18.5174C110.181 18.58 110.098 18.7344 110.081 18.9304C110.069 19.1181 110.131 19.2682 110.26 19.3558L110.29 19.3808L110.777 19.4184C111.574 19.4851 111.603 19.5602 111.603 21.3663V27.4267C111.603 29.2578 111.558 29.2662 110.769 29.3579L110.311 29.4122L110.239 29.4414L110.206 29.4748C110.052 29.6332 110.077 29.8668 110.085 29.9335C110.11 30.0921 110.189 30.213 110.323 30.2798L110.377 30.2922H110.41C111.244 30.2589 111.833 30.238 112.546 30.238C113.259 30.238 113.809 30.2548 114.648 30.2881H114.673L114.728 30.2798L114.761 30.2631C114.949 30.1672 114.978 29.9211 114.982 29.8501C114.994 29.6666 114.936 29.5165 114.819 29.4372L114.794 29.4205L114.294 29.3496C113.505 29.2537 113.46 29.2495 113.46 27.4184V21.3579C113.46 19.5518 113.489 19.4768 114.286 19.4101L114.294 19.4142Z" fill="white"/>
<path d="M130.048 19.4075L130.315 19.37L130.385 19.3408L130.418 19.3075C130.523 19.2032 130.573 19.0405 130.556 18.8778C130.54 18.7235 130.461 18.5942 130.319 18.5065L130.252 18.4857H130.206C129.652 18.5191 129.214 18.5399 128.467 18.5399C127.858 18.5399 127.299 18.5232 126.449 18.4899H126.402L126.373 18.5065C126.24 18.5566 126.148 18.6776 126.119 18.8402C126.094 18.9821 126.119 19.1948 126.29 19.3408L126.323 19.37L126.682 19.4116C127.341 19.4951 127.533 19.5869 127.57 19.6453C127.662 19.787 127.874 20.4127 127.874 23.0446C127.874 23.0446 127.874 26.8529 127.874 26.932C127.316 26.3439 126.724 25.6808 125.993 24.8632L123.717 22.3105C122.03 20.4211 121.068 19.1865 120.851 18.6401L120.784 18.4648L120.601 18.4941C120.404 18.5232 120.133 18.5441 119.854 18.5441C119.558 18.5441 118.652 18.5441 117.923 18.4899L117.86 18.4982L117.826 18.5149C117.706 18.5733 117.623 18.6942 117.601 18.8486C117.572 19.0196 117.627 19.2032 117.76 19.3366L117.793 19.37L118.16 19.4116C118.586 19.4659 118.911 19.5869 119.073 19.7453C119.358 20.054 119.387 20.321 119.387 20.8131V25.8893C119.387 26.7069 119.391 28.6172 119.186 29.1428C119.17 29.1761 119.086 29.2886 118.623 29.3471L118.131 29.4013L118.061 29.4305L118.026 29.4639C117.931 29.5598 117.881 29.71 117.893 29.8685C117.906 30.027 117.977 30.1646 118.115 30.2606L118.189 30.2897H118.239C118.823 30.2564 119.274 30.2356 119.996 30.2356C120.584 30.2356 121.159 30.2522 122.01 30.2897L122.081 30.273L122.119 30.248C122.222 30.173 122.29 30.0603 122.311 29.9227C122.335 29.7726 122.294 29.614 122.177 29.4555L122.144 29.4096L121.51 29.3471C121.038 29.3095 120.855 29.2011 120.826 29.1428C120.763 29.0301 120.55 28.4461 120.55 25.7349V22.0269C120.55 21.8309 120.55 21.6057 120.562 21.4097C120.83 21.7182 121.197 22.1479 121.526 22.5399C121.805 22.8695 122.069 23.1782 122.235 23.3742L126.185 27.8705C127.495 29.3638 128.124 30.102 128.351 30.4232L128.421 30.5191H128.541C128.805 30.5191 129.014 30.3857 129.092 30.1563L129.101 30.1062V30.077C129.076 29.881 129.047 29.2095 129.047 27.1281V22.8111C129.047 22.0186 129.038 20.1625 129.272 19.6662C129.272 19.6662 129.414 19.5243 130.056 19.4242L130.048 19.4075Z" fill="white"/>
<path d="M139.741 23.8903C139.741 23.8903 141.005 21.7047 141.098 21.542C141.752 20.3992 142.223 19.5734 142.899 19.4565L143.404 19.3648L143.458 19.3398L143.487 19.3147C143.6 19.2188 143.658 19.0644 143.646 18.9018C143.633 18.7391 143.549 18.5931 143.396 18.5014L143.328 18.4805H143.287C142.694 18.518 142.223 18.5347 141.719 18.5347C141.214 18.5347 140.726 18.518 140.076 18.4805L140.016 18.4888L139.983 18.5056C139.859 18.5681 139.775 18.6891 139.75 18.8434C139.721 19.0144 139.775 19.1895 139.917 19.3272L139.95 19.3606L140.334 19.4024C140.58 19.4357 140.747 19.4858 140.826 19.5149C140.705 19.8402 140.121 20.9289 139.854 21.4211L139.762 21.588C139.382 22.3262 138.936 23.1312 138.374 24.103C137.961 23.3481 137.556 22.5222 137.156 21.7047C136.989 21.3627 136.822 21.0249 136.655 20.6912C136.526 20.4242 136.212 19.7109 136.159 19.5191C136.204 19.4982 136.338 19.4565 136.668 19.4065L136.922 19.3689L136.989 19.3398L137.022 19.3064C137.139 19.1854 137.189 18.9852 137.147 18.8058C137.114 18.6557 137.014 18.5389 136.872 18.493L136.822 18.4847H136.788C136.375 18.518 135.77 18.5389 134.987 18.5389C134.203 18.5389 133.577 18.5223 132.997 18.4847L132.931 18.4971L132.897 18.518C132.788 18.5806 132.714 18.6933 132.689 18.8392C132.659 19.0102 132.701 19.1812 132.826 19.3231L132.859 19.3606L133.418 19.4607C133.848 19.5316 134.048 19.565 134.595 20.6328L136.601 24.5493C137.072 25.4587 137.122 25.6421 137.122 26.5515V27.419C137.122 29.2668 137.076 29.271 136.313 29.3502L135.75 29.4044L135.675 29.4337L135.642 29.467C135.487 29.6255 135.512 29.8591 135.52 29.93C135.545 30.0885 135.625 30.2095 135.758 30.2762L135.812 30.2887H135.846C136.73 30.2553 137.348 30.2345 138.065 30.2345C138.783 30.2345 139.366 30.2553 140.371 30.2845H140.396L140.455 30.2762L140.488 30.2595C140.601 30.2053 140.676 30.0802 140.705 29.9258C140.714 29.8549 140.739 29.6214 140.559 29.4378L140.526 29.4044L139.791 29.3461C139.124 29.296 138.987 29.2877 138.987 27.4149V26.5306C138.987 25.2668 139.016 25.1667 139.754 23.8903H139.741Z" fill="white"/>
<path d="M145.541 30.2773L145.595 30.2897H145.628C146.654 30.2564 147.213 30.2397 147.935 30.2397H149.466C150.955 30.2397 152.49 30.2564 154.024 30.2897H154.175L154.237 30.1604C154.466 29.6849 154.9 28.3502 155.03 27.7078V27.637L155.009 27.5994C154.917 27.395 154.696 27.3033 154.517 27.3033C154.412 27.3033 154.313 27.3324 154.208 27.4117L154.171 27.4618L154.162 27.4743C153.716 28.3669 153.282 28.8966 153.057 29.0218C152.706 29.1969 152.202 29.2512 150.98 29.2512C149.599 29.2512 149.252 29.0968 149.09 28.9342C148.874 28.7048 148.831 28.1458 148.831 27.3241V24.9258C148.831 24.8298 148.831 24.7298 148.831 24.7172C148.865 24.7005 149.006 24.7005 149.157 24.7005H150.146C150.734 24.7005 151.172 24.7131 151.401 24.7798C151.597 24.8298 151.693 24.9508 151.759 25.2553L151.922 25.9519L151.947 26.0061L151.959 26.0186C152.043 26.1187 152.189 26.1771 152.356 26.1771C152.548 26.1771 152.706 26.102 152.794 25.9477L152.81 25.8935V25.8559C152.81 25.6891 152.798 25.4764 152.781 25.2178C152.765 24.9091 152.74 24.563 152.74 24.2209C152.74 23.8789 152.76 23.5035 152.781 23.174C152.798 22.9112 152.81 22.6859 152.81 22.4774L152.798 22.419L152.781 22.3856C152.706 22.2563 152.548 22.1771 152.356 22.1771C152.189 22.1771 152.043 22.2355 151.959 22.3356L151.939 22.3606L151.772 23.1364C151.701 23.4951 151.626 23.5202 151.517 23.5577C151.346 23.6119 150.834 23.6494 150.146 23.6494H149.157C149.006 23.6494 148.865 23.6494 148.84 23.6411C148.827 23.6161 148.827 23.5076 148.827 23.4076V20.004C148.827 19.7996 148.827 19.6036 148.853 19.5702C148.878 19.5535 148.998 19.5535 149.107 19.5535H150.333C151.071 19.5535 151.593 19.5702 151.926 19.6495C152.648 19.8288 152.789 20.2751 153.023 21.0092L153.065 21.1343L153.09 21.176L153.099 21.1844C153.173 21.2761 153.303 21.3304 153.453 21.3304C153.603 21.3304 153.795 21.2803 153.912 21.1051L153.941 21.0634L153.912 20.7423C153.824 19.762 153.745 18.9321 153.649 18.6609L153.578 18.4648L153.374 18.5149C153.198 18.5608 152.052 18.5608 151.133 18.5608H147.935C147.271 18.5608 146.712 18.5482 145.912 18.5108L145.853 18.5191L145.824 18.5358C145.695 18.5984 145.611 18.7527 145.599 18.9487C145.586 19.1364 145.644 19.2824 145.762 19.3616L145.787 19.3783L146.137 19.4325C146.925 19.5285 146.972 19.5326 146.972 21.3471V27.4743C146.972 29.297 146.875 29.3054 146.125 29.3721L145.528 29.4263L145.453 29.4555L145.419 29.4889C145.262 29.6474 145.286 29.881 145.299 29.9519C145.324 30.1104 145.403 30.2313 145.537 30.2981L145.541 30.2773Z" fill="white"/>
<path d="M107.138 37.7727L107.058 37.7518H107.012C106.469 37.7852 106.036 37.8061 105.285 37.8061C104.651 37.8061 104.08 37.7936 103.275 37.7518L103.225 37.7601L103.196 37.7685C103.053 37.8227 102.954 37.952 102.924 38.1231C102.886 38.3233 102.95 38.5151 103.112 38.6569L103.146 38.682L103.508 38.7237C104.234 38.8155 104.351 38.9155 104.367 38.9448C104.439 39.0574 104.668 39.6288 104.668 42.3108C104.668 42.3108 104.668 46.0439 104.668 46.1022C104.167 45.5767 103.642 44.9844 102.995 44.2628L100.58 41.5558C98.4946 39.2242 97.8857 38.2899 97.7355 37.9145L97.6604 37.7227L97.4561 37.756C97.2726 37.7852 97.0098 37.8019 96.722 37.8019C96.4342 37.8019 95.5291 37.8019 94.795 37.7477L94.7282 37.7601L94.6948 37.7768C94.5655 37.8394 94.478 37.9687 94.4529 38.1272C94.4237 38.3108 94.478 38.4984 94.6281 38.6486L94.6615 38.682L95.0327 38.7237C95.4539 38.7779 95.771 38.8947 95.9253 39.0491C96.2006 39.3493 96.2298 39.6079 96.2298 40.0918V45.1387C96.2298 45.877 96.234 47.8416 96.0338 48.363C96.0255 48.3838 95.9545 48.4881 95.4956 48.5507L94.9952 48.6091L94.9201 48.6424L94.8867 48.6758C94.7825 48.7759 94.7282 48.9302 94.7449 49.0971C94.7574 49.2639 94.8325 49.4057 94.9868 49.5183L95.0702 49.5433H95.1203C95.7251 49.5058 96.1839 49.4891 96.868 49.4891C97.552 49.4891 98.2319 49.5142 98.8784 49.5433L98.9576 49.5183L98.9952 49.4933C99.1036 49.4182 99.1787 49.2972 99.1996 49.1555C99.2246 48.9969 99.187 48.8301 99.0911 48.705L99.0202 48.6132L98.3737 48.5507C97.9024 48.5131 97.7397 48.4005 97.7147 48.363C97.6521 48.2503 97.4435 47.6747 97.4435 44.9885V41.3014C97.4435 41.1429 97.4435 40.9468 97.4561 40.7591C97.6813 41.022 97.9691 41.3598 98.2444 41.6851L98.3445 41.8019C98.6323 42.1398 98.8992 42.4568 99.0703 42.6528L102.995 47.12C104.297 48.6007 104.918 49.3306 105.143 49.6518L105.218 49.7645H105.352C105.627 49.7645 105.844 49.6268 105.932 49.3723V49.3181V49.2889C105.911 49.0971 105.882 48.4297 105.882 46.3566V42.0855C105.882 41.2972 105.874 39.4411 106.099 38.9614C106.099 38.9614 106.24 38.8279 106.857 38.7321L107.138 38.6945L107.212 38.6569L107.245 38.6235C107.354 38.511 107.408 38.3441 107.388 38.1731C107.371 38.0146 107.287 37.877 107.133 37.7768L107.138 37.7727Z" fill="white"/>
<path d="M113.569 38.7297L114.023 38.6964L114.086 38.6755L114.116 38.6546C114.241 38.5712 114.303 38.4127 114.291 38.2167C114.283 38.1165 114.245 37.8788 114.023 37.7704L113.961 37.7578H113.928C113.035 37.7954 112.468 37.8121 111.838 37.8121C111.154 37.8121 110.599 37.7995 109.686 37.7578L109.62 37.7704L109.585 37.7871C109.385 37.8871 109.356 38.1499 109.352 38.2292C109.344 38.4211 109.407 38.5795 109.531 38.6629L109.56 38.6796L110.078 38.7339C110.812 38.7965 110.87 38.8006 110.87 40.64V46.6672C110.87 48.4607 110.841 48.4649 110.066 48.5567L109.602 48.6109L109.527 48.6442L109.494 48.6776C109.36 48.8069 109.339 49.0113 109.36 49.1573C109.385 49.3241 109.469 49.4576 109.62 49.5326L109.682 49.5452H109.715C110.645 49.5076 111.175 49.4952 111.838 49.4952C112.501 49.4952 113.002 49.5118 113.928 49.5452H113.957L114.019 49.5326L114.053 49.516C114.258 49.4118 114.287 49.1531 114.291 49.0781C114.303 48.8862 114.236 48.7277 114.116 48.6442L114.091 48.6275L113.581 48.5525C112.81 48.4607 112.777 48.4565 112.777 46.663V40.6359C112.777 38.7965 112.839 38.7881 113.569 38.7297Z" fill="white"/>
<path d="M112.984 35.3564C112.984 34.8141 112.521 34.2344 111.829 34.2344C111.495 34.2344 111.191 34.3596 110.97 34.589C110.757 34.81 110.644 35.1061 110.657 35.419C110.678 36.1072 111.15 36.566 111.829 36.566C112.509 36.566 112.984 36.0571 112.984 35.3606V35.3564Z" fill="white"/>
<path d="M128.449 37.7628L128.379 37.7461H128.341C127.811 37.7837 127.294 37.8004 126.719 37.8004C126.031 37.8004 125.413 37.7837 124.937 37.7461L124.862 37.7628L124.825 37.7837C124.695 37.8587 124.608 38.0088 124.591 38.1841C124.575 38.3592 124.633 38.5261 124.783 38.6512L124.817 38.6804L125.201 38.7221C125.534 38.7597 125.676 38.8181 125.73 38.8472C125.721 38.9474 125.697 39.0975 125.597 39.3562C125.304 40.0902 124.499 42.0256 124.028 43.1393C123.903 43.4229 123.749 43.7941 123.578 44.1987C123.311 44.8285 122.96 45.6628 122.648 46.3635C121.889 44.6033 121.162 42.7848 120.478 41.0621C120.045 39.9985 119.761 39.1559 119.673 38.8431C119.737 38.8181 119.882 38.7722 120.22 38.7263L120.512 38.6888L120.579 38.6595L120.612 38.6345C120.728 38.5344 120.792 38.3675 120.775 38.1882C120.753 38.0088 120.666 37.8587 120.503 37.767L120.433 37.7503H120.395C119.686 37.7878 119.094 37.8045 118.36 37.8045C117.626 37.8045 117.1 37.792 116.579 37.7503L116.499 37.767L116.462 37.792C116.328 37.8754 116.241 38.0297 116.228 38.2008C116.216 38.3718 116.282 38.5344 116.424 38.6554L116.458 38.6846L116.842 38.7263C117.409 38.7931 117.614 39.0099 118.001 39.9567L120.98 47.302C121.325 48.157 121.592 48.9203 121.746 49.5168L121.78 49.6461L121.901 49.6962C122.018 49.742 122.134 49.767 122.252 49.767C122.372 49.767 122.493 49.7336 122.614 49.6502L122.669 49.5835L122.685 49.5376C122.973 48.6325 123.782 46.6429 124.433 45.1455L125.346 43.0642C126.151 41.2456 126.781 39.9484 127.223 39.2059C127.419 38.8932 127.607 38.7597 127.904 38.7347L128.503 38.6971L128.575 38.6262C128.695 38.5011 128.72 38.3008 128.704 38.1548C128.679 37.9922 128.604 37.8629 128.449 37.7753V37.7628Z" fill="white"/>
<path d="M83.9302 34.6199C83.7216 34.8535 83.6132 35.1746 83.6466 35.475C83.6466 36.1757 84.0553 36.5969 84.7353 36.5969C85.4151 36.5969 85.8572 36.109 85.8572 35.4416C85.8572 34.8785 85.4277 34.2695 84.7353 34.2695C84.4224 34.2695 84.1388 34.3946 83.9302 34.624V34.6199Z" fill="white"/>
<path d="M89.5934 35.4416C89.5934 34.866 89.193 34.2695 88.5214 34.2695C87.8082 34.2695 87.3828 34.8826 87.3828 35.4833C87.3995 36.1631 87.8499 36.6011 88.5214 36.6011C89.1554 36.6011 89.5934 36.1257 89.5934 35.4457V35.4416Z" fill="white"/>
<path d="M92.3392 37.7748L92.2642 37.7539H92.2183C91.5718 37.7956 91.1254 37.8082 90.4582 37.8082C89.7908 37.8082 89.1651 37.7915 88.5018 37.7539L88.4268 37.7748L88.3893 37.7998C88.2808 37.8708 88.2057 38.0001 88.1849 38.1543C88.164 38.3212 88.2057 38.4797 88.3017 38.5923L88.3726 38.6757L88.9024 38.7175C89.2985 38.7508 89.4946 38.855 89.5446 38.9427C89.6322 39.0929 89.8325 39.7268 89.8325 42.317V44.2608C89.8325 46.1961 89.2902 48.5027 86.7083 48.5027C84.5394 48.5027 83.5342 47.1513 83.5342 44.2441V40.5861C83.5342 38.78 83.5926 38.7759 84.31 38.7133L84.748 38.6757L84.8105 38.6549L84.8397 38.634C84.9607 38.5506 85.0233 38.3963 85.0107 38.2086C85.0066 38.1335 84.9774 37.8832 84.7438 37.7665L84.6813 37.7539H84.6478C83.7845 37.7915 83.2422 37.8082 82.5791 37.8082C81.9492 37.8082 81.382 37.7956 80.4602 37.7539L80.3976 37.7665L80.3642 37.7831C80.164 37.8874 80.1306 38.1376 80.1265 38.2128C80.1139 38.4005 80.1807 38.5589 80.3266 38.6549L80.3559 38.6757L80.8439 38.7133C81.5613 38.7759 81.6197 38.78 81.6197 40.5861V44.5819C81.6197 46.6424 82.0701 47.9729 83.0295 48.7738C83.8012 49.4329 84.9231 49.7665 86.3663 49.7665C87.7303 49.7665 89.0441 49.2619 89.7866 48.4485C90.6291 47.5475 91.042 46.1669 91.042 44.2274V42.317C91.042 41.5412 91.042 39.4766 91.2547 38.9719C91.3048 38.8676 91.5343 38.7466 91.8888 38.7175L92.4018 38.6757L92.4727 38.5923C92.5728 38.4755 92.6187 38.2962 92.5895 38.1335C92.5645 37.9875 92.4894 37.8708 92.3434 37.7789L92.3392 37.7748Z" fill="white"/>
<path d="M193.934 46.8251C193.838 46.6124 193.605 46.5123 193.417 46.5123C193.308 46.5123 193.204 46.5415 193.095 46.6249L193.041 46.6958C192.536 47.7052 192.119 48.1306 191.957 48.2183C191.61 48.3893 191.114 48.4477 189.905 48.4477C188.536 48.4477 188.199 48.2892 188.044 48.139C187.84 47.9222 187.794 47.3715 187.794 46.5582V44.1723C187.794 44.0931 187.794 44.0013 187.794 43.9888C187.823 43.9722 187.957 43.9722 188.094 43.9722H189.075C189.655 43.9722 190.088 43.9846 190.313 44.0472C190.497 44.0931 190.584 44.2099 190.647 44.4977L190.809 45.1859L190.851 45.261C190.939 45.3694 191.094 45.432 191.268 45.432C191.472 45.432 191.64 45.3486 191.736 45.1817L191.753 45.1192V45.0816C191.753 44.9148 191.74 44.6937 191.724 44.4309C191.707 44.1306 191.685 43.7886 191.685 43.4591C191.685 43.1129 191.707 42.7625 191.724 42.4288C191.74 42.1661 191.753 41.9326 191.753 41.7197L191.736 41.653L191.719 41.6239C191.64 41.482 191.468 41.3986 191.268 41.3986C191.098 41.3986 190.943 41.4612 190.851 41.5654L190.83 41.5946L190.664 42.3788C190.593 42.7208 190.53 42.7417 190.434 42.7751C190.264 42.8334 189.754 42.8668 189.079 42.8668H188.098C187.961 42.8668 187.832 42.8668 187.811 42.8627C187.798 42.8377 187.798 42.7458 187.798 42.6541V39.2714C187.798 39.0795 187.798 38.9001 187.819 38.8668C187.844 38.8543 187.953 38.8543 188.044 38.8543H189.262C189.876 38.8543 190.493 38.8668 190.843 38.946C191.544 39.1254 191.685 39.5592 191.916 40.2849L191.957 40.4059L191.986 40.4601L191.994 40.4685C192.077 40.5686 192.211 40.6228 192.37 40.6228C192.528 40.6228 192.728 40.5686 192.858 40.3767L192.887 40.3349L192.858 40.0264C192.766 39.0044 192.691 38.1994 192.595 37.9283L192.515 37.7031L192.286 37.7615C192.111 37.8032 190.977 37.8032 190.063 37.8032H186.881C186.196 37.8032 185.621 37.7865 184.862 37.7489L184.795 37.7615L184.761 37.7782C184.579 37.874 184.532 38.091 184.524 38.2161C184.515 38.408 184.579 38.5664 184.695 38.6499L184.72 38.6666L185.083 38.725C185.842 38.8167 185.888 38.8209 185.888 40.6019V46.6958C185.888 48.481 185.796 48.4893 185.075 48.5519L184.424 48.6103L184.358 48.677C184.224 48.8106 184.203 49.015 184.228 49.1609C184.257 49.3277 184.34 49.4571 184.486 49.5321L184.549 49.5447H184.699C185.617 49.5113 186.171 49.4946 186.877 49.4946H188.399C189.83 49.4946 191.311 49.5113 192.928 49.5447H193.095L193.166 49.3987C193.396 48.9273 193.826 47.5968 193.959 46.9461L193.95 46.8668L193.934 46.8251Z" fill="white"/>
<path d="M201.164 42.8996L199.813 42.0529C199.321 41.7484 198.495 41.0977 198.495 40.1926C198.495 39.4543 198.799 38.5742 200.251 38.5742C201.702 38.5742 202.074 39.446 202.311 40.3219L202.353 40.3928C202.432 40.4887 202.557 40.5388 202.708 40.5388C202.875 40.5388 203.087 40.4721 203.212 40.2886L203.237 40.2134V40.1717C203.237 39.4002 203.07 38.4325 202.916 38.0195L202.853 37.8485H202.67C202.561 37.8485 202.353 37.8193 202.144 37.7567C201.735 37.6441 201.089 37.5273 200.505 37.5273C198.286 37.5273 196.793 38.7995 196.793 40.6973C196.793 42.2198 197.848 43.2374 198.737 43.8256L200.347 44.8767C201.46 45.5941 201.615 46.3323 201.615 47.029C201.615 47.8673 201.043 48.7141 199.759 48.7141C198.128 48.7141 197.411 47.446 197.093 46.3657L197.072 46.3199L197.064 46.3073C196.989 46.1947 196.855 46.1322 196.697 46.1322C196.555 46.1322 196.346 46.1906 196.205 46.3866L196.18 46.4659V46.5117C196.217 47.3251 196.434 48.5639 196.684 49.0226L196.734 49.0769L196.767 49.0978C197.194 49.3439 198.123 49.761 199.538 49.761C201.848 49.761 203.4 48.3971 203.4 46.3699C203.4 44.9642 202.666 43.8297 201.16 42.8996H201.164Z" fill="white"/>
<path d="M208.446 36.5658C209.118 36.5658 209.601 36.0569 209.601 35.3603C209.601 34.8181 209.139 34.2383 208.446 34.2383C208.112 34.2383 207.808 34.3635 207.587 34.5929C207.375 34.8139 207.262 35.11 207.274 35.4187C207.295 36.107 207.767 36.57 208.446 36.57V36.5658Z" fill="white"/>
<path d="M210.705 48.6275L210.192 48.5525C209.42 48.4607 209.387 48.4565 209.387 46.663V40.6359C209.387 38.7965 209.449 38.7881 210.18 38.7297L210.634 38.6964L210.696 38.6755L210.726 38.6546C210.847 38.5712 210.909 38.4127 210.897 38.2208C210.888 38.0998 210.847 37.8788 210.63 37.7704L210.567 37.7578H210.534C209.641 37.7954 209.078 37.8121 208.444 37.8121C207.76 37.8121 207.205 37.7995 206.292 37.7578L206.23 37.7704L206.196 37.7871C206.062 37.8538 205.971 38.0207 205.963 38.2292C205.949 38.4211 206.017 38.5795 206.162 38.6755L206.192 38.6964L206.684 38.7339C207.418 38.7965 207.477 38.8006 207.477 40.64V46.6672C207.477 48.4607 207.448 48.4649 206.672 48.5567L206.209 48.6109L206.129 48.6442L206.096 48.6776C205.933 48.8402 205.959 49.0864 205.971 49.1573C206 49.3241 206.079 49.4535 206.23 49.5285L206.292 49.541H206.325C207.252 49.5035 207.781 49.4909 208.448 49.4909C209.116 49.4909 209.666 49.5076 210.538 49.541H210.567L210.63 49.5285L210.663 49.5118C210.801 49.4409 210.888 49.2782 210.901 49.0697C210.913 48.8778 210.847 48.7194 210.726 48.6401L210.701 48.6234L210.705 48.6275Z" fill="white"/>
<path d="M181.908 37.3089C181.832 37.3089 181.761 37.3215 181.666 37.359L181.598 37.4132L181.578 37.4549C181.394 37.7678 181.377 37.7969 180.481 37.7969H173.491C172.685 37.7969 172.489 37.7385 172.435 37.4466L172.401 37.3757L172.368 37.3465C172.293 37.2755 172.188 37.2422 172.043 37.2422C171.98 37.2422 171.822 37.2505 171.721 37.3172L171.63 37.3757L171.609 37.4883C171.492 38.1599 171.242 39.2193 170.975 39.9658L170.938 40.0701L170.992 40.1703C171.083 40.3455 171.304 40.4706 171.529 40.4706C171.643 40.4706 171.742 40.4372 171.847 40.358L171.905 40.2787C172.068 39.8991 172.223 39.5446 172.601 39.1984C172.944 38.8856 173.799 38.8439 174.507 38.8439H175.438C175.546 38.8439 175.655 38.8439 175.672 38.848C175.688 38.8773 175.688 39.0024 175.688 39.1276V46.6896C175.688 48.4748 175.597 48.4832 174.875 48.5457L174.237 48.6041L174.154 48.6375C174.011 48.725 173.933 48.896 173.941 49.0963C173.941 49.1713 173.974 49.4133 174.199 49.5301L174.228 49.5467H174.391C175.413 49.5093 175.976 49.4926 176.64 49.4926C177.303 49.4926 177.887 49.5093 178.846 49.5426H178.879L178.942 49.5301L178.975 49.5134C179.112 49.4424 179.201 49.2756 179.213 49.0713C179.225 48.8794 179.159 48.7209 179.033 48.6416L179.009 48.625L178.375 48.5499C177.64 48.4873 177.598 48.4832 177.598 46.6938V39.1067C177.598 39.0274 177.598 38.919 177.603 38.8523C177.666 38.8439 177.77 38.8439 177.828 38.8439H179.029C179.909 38.8439 180.502 38.9649 180.84 39.2151C180.919 39.2735 181.073 39.5613 181.165 40.3079L181.194 40.3788L181.219 40.4081C181.307 40.5122 181.457 40.5707 181.623 40.5707C181.836 40.5707 182.016 40.4748 182.104 40.2912L182.116 40.2204V40.1828C182.065 39.7073 182.178 38.3726 182.358 37.7052L182.383 37.6092L182.337 37.5175C182.241 37.3298 182.003 37.3089 181.908 37.3089Z" fill="white"/>
<path d="M139.304 46.8254C139.209 46.6127 138.975 46.5169 138.787 46.5169C138.678 46.5169 138.579 46.546 138.466 46.6294L138.412 46.7003C137.907 47.7098 137.49 48.1352 137.327 48.2228C136.981 48.3938 136.485 48.4522 135.275 48.4522C133.907 48.4522 133.569 48.2937 133.415 48.1435C133.206 47.9225 133.164 47.3761 133.164 46.5627V44.1768C133.164 44.0977 133.164 44.0058 133.164 43.9934C133.194 43.9767 133.327 43.9767 133.464 43.9767H134.449C135.029 43.9767 135.459 43.9891 135.688 44.0517C135.872 44.0977 135.959 44.2144 136.022 44.5022L136.184 45.1905L136.226 45.2655C136.314 45.3739 136.468 45.4365 136.648 45.4365C136.848 45.4365 137.014 45.3531 137.11 45.1862L137.127 45.1237V45.0862C137.127 44.9193 137.115 44.6982 137.098 44.4355C137.081 44.1351 137.061 43.7931 137.061 43.4636C137.061 43.1174 137.081 42.767 137.098 42.4333C137.115 42.1706 137.127 41.937 137.127 41.7243L137.11 41.6576L137.094 41.6242C137.014 41.4865 136.844 41.3989 136.644 41.3989C136.472 41.3989 136.318 41.4615 136.226 41.5658L136.205 41.5951L136.039 42.3792C135.967 42.7212 135.905 42.742 135.805 42.7754C135.634 42.8338 135.125 42.8672 134.449 42.8672H133.464C133.327 42.8672 133.198 42.8672 133.177 42.863C133.164 42.838 133.164 42.7462 133.164 42.6545V39.2717C133.164 39.0799 133.164 38.9005 133.185 38.8672C133.21 38.8546 133.319 38.8546 133.415 38.8546H134.633C135.246 38.8546 135.863 38.8672 136.214 38.9464C136.914 39.1257 137.057 39.5596 137.282 40.2853L137.323 40.4021L137.352 40.4563L137.361 40.4647C137.444 40.5648 137.577 40.619 137.736 40.619C137.895 40.619 138.094 40.5648 138.224 40.3729L138.253 40.3311L138.22 39.9516C138.137 39.0006 138.057 38.1915 137.961 37.9245L137.881 37.6992L137.652 37.7577C137.478 37.7994 136.343 37.7994 135.43 37.7994H132.247C131.562 37.7994 130.988 37.7827 130.228 37.7451L130.166 37.7577L130.133 37.7744C129.941 37.8702 129.902 38.1081 129.894 38.2081C129.881 38.4042 129.945 38.5626 130.069 38.6461L130.094 38.6628L130.453 38.7212C131.213 38.8129 131.258 38.8171 131.258 40.5981V46.692C131.258 48.4772 131.167 48.4855 130.445 48.5481L129.794 48.6065L129.724 48.6732C129.561 48.8401 129.582 49.0862 129.594 49.1613C129.623 49.3281 129.707 49.4532 129.848 49.5242L129.912 49.5409H130.065C130.983 49.5075 131.533 49.4907 132.243 49.4907H133.765C135.196 49.4907 136.677 49.5075 138.294 49.5409H138.461L138.533 49.3949C138.762 48.9235 139.192 47.593 139.325 46.9423L139.316 46.863L139.3 46.8213L139.304 46.8254Z" fill="white"/>
<path d="M152.779 48.8455L152.721 48.833C152.342 48.8038 151.97 48.6578 151.703 48.42C150.552 47.4565 149.63 46.0342 148.354 43.9779C148.329 43.9362 148.313 43.907 148.3 43.882C148.917 43.6025 150.423 42.7307 150.423 40.883C150.423 39.3981 149.585 38.6473 148.883 38.2845C148.008 37.8089 146.902 37.7422 145.934 37.7422C144.396 37.7422 143.19 37.7839 142.11 37.8841L142.043 37.9049C141.905 37.9758 141.814 38.1218 141.797 38.3053C141.781 38.493 141.856 38.6807 141.989 38.7725L142.018 38.7933L142.652 38.885C143.09 38.9393 143.169 38.9476 143.169 40.6077V46.6807C143.169 48.4451 143.14 48.4492 142.381 48.541L141.914 48.5994L141.831 48.6411L141.797 48.6828C141.672 48.8288 141.655 49.0373 141.684 49.1792C141.718 49.3335 141.797 49.4503 141.939 49.5212L142.002 49.5337H142.039C142.811 49.5003 143.432 49.4837 144.141 49.4837C144.85 49.4837 145.401 49.5003 146.177 49.5337L146.239 49.5212L146.273 49.5046C146.398 49.442 146.481 49.3043 146.506 49.1124C146.527 48.9206 146.473 48.7496 146.331 48.6286L146.302 48.6036L145.872 48.541C145.108 48.4368 145.084 48.4326 145.084 46.6807V44.5493C145.084 44.5118 145.084 44.4618 145.075 44.4618C145.122 44.4367 145.343 44.4367 145.622 44.4367C146.219 44.4367 146.402 44.5618 146.611 44.8663C146.869 45.2417 147.169 45.7172 147.458 46.176C147.745 46.6307 148.041 47.102 148.271 47.4274C149.463 49.125 150.364 49.6672 151.987 49.6672C152.333 49.6672 152.629 49.6297 152.838 49.5587L152.897 49.5254C153.009 49.4377 153.067 49.2876 153.046 49.1458C153.025 49.0082 152.938 48.8913 152.796 48.8372L152.779 48.8455ZM147.624 43.0311C147.169 43.3731 146.535 43.419 146.035 43.419C145.455 43.419 145.197 43.4023 145.084 43.3898C145.079 43.2938 145.079 43.1437 145.079 43.0353V39.0769C145.079 38.8878 145.36 38.7933 145.918 38.7933C147.724 38.7933 148.367 40.0571 148.367 41.1416C148.367 42.0259 148.125 42.6432 147.624 43.0311Z" fill="white"/>
<path d="M166.373 36.5658C167.04 36.5658 167.528 36.0569 167.528 35.3603C167.528 34.8181 167.065 34.2383 166.373 34.2383C166.039 34.2383 165.731 34.3635 165.51 34.5929C165.297 34.8139 165.184 35.11 165.196 35.4229C165.217 36.1111 165.689 36.57 166.373 36.57V36.5658Z" fill="white"/>
<path d="M168.113 38.7297L168.571 38.688L168.659 38.6546C168.78 38.5712 168.846 38.4127 168.834 38.2208C168.83 38.1458 168.801 37.8871 168.571 37.7704L168.509 37.7578H168.475C167.583 37.7954 167.015 37.8121 166.389 37.8121C165.705 37.8121 165.147 37.7995 164.237 37.7578L164.175 37.7704L164.142 37.7871C163.942 37.8871 163.908 38.1458 163.904 38.225C163.892 38.4211 163.958 38.5795 164.104 38.6755L164.133 38.6964L164.625 38.7339C165.36 38.7965 165.418 38.8006 165.418 40.64V46.6672C165.418 48.4607 165.389 48.4649 164.613 48.5567L164.15 48.6109L164.07 48.6442L164.037 48.6776C163.904 48.8111 163.883 49.0155 163.908 49.1615C163.933 49.3283 164.02 49.4576 164.167 49.5326L164.229 49.5452H164.262C165.189 49.5076 165.714 49.4952 166.385 49.4952C167.057 49.4952 167.545 49.5118 168.475 49.5452H168.509L168.571 49.5326L168.605 49.516C168.738 49.4451 168.83 49.2825 168.838 49.0739C168.846 48.882 168.784 48.7277 168.663 48.6442L168.638 48.6275L168.129 48.5525C167.357 48.4607 167.324 48.4565 167.324 46.663V40.6359C167.324 38.7965 167.382 38.7881 168.117 38.7297H168.113Z" fill="white"/>
<path d="M158.949 42.8996L157.593 42.0529C157.101 41.7484 156.28 41.0977 156.28 40.1926C156.28 39.4543 156.584 38.5742 158.035 38.5742C159.487 38.5742 159.858 39.446 160.096 40.3219L160.137 40.3928C160.217 40.4887 160.342 40.5388 160.492 40.5388C160.659 40.5388 160.872 40.4721 160.997 40.2886L161.023 40.2134V40.1717C161.023 39.4002 160.855 38.4325 160.701 38.0195L160.639 37.8485H160.455C160.342 37.8485 160.129 37.8151 159.929 37.7567C159.516 37.6441 158.874 37.5273 158.286 37.5273C156.067 37.5273 154.574 38.7995 154.574 40.6973C154.574 42.2198 155.629 43.2374 156.517 43.8256L158.128 44.8767C159.241 45.5941 159.396 46.3323 159.396 47.029C159.396 47.8673 158.824 48.7141 157.539 48.7141C155.908 48.7141 155.191 47.446 154.874 46.3657L154.853 46.324L154.845 46.3115C154.77 46.1989 154.636 46.1363 154.477 46.1363C154.336 46.1363 154.128 46.1947 153.985 46.3907L153.961 46.47V46.5159C153.994 47.3084 154.215 48.5639 154.465 49.0269L154.516 49.0811L154.549 49.1019C154.978 49.348 155.912 49.761 157.318 49.761C159.629 49.761 161.18 48.3971 161.18 46.3699C161.18 44.9642 160.451 43.8297 158.945 42.8996H158.949Z" fill="white"/>
<path d="M82.8595 57.5532L83.1808 57.5281L83.2016 57.5115C83.2642 57.4698 83.2975 57.3864 83.2892 57.2778C83.2892 57.2362 83.2684 57.0902 83.1682 57.036L83.1432 57.0234H83.1141C82.5343 57.0485 82.1297 57.061 81.6583 57.061C81.162 57.061 80.7699 57.0485 80.1776 57.0234H80.1484L80.1234 57.036C80.0191 57.0902 80.0066 57.2362 80.0024 57.2778C79.9982 57.3821 80.0275 57.4655 80.0901 57.5073L80.1109 57.524L80.4321 57.549C81.016 57.5991 81.0536 57.6784 81.0536 58.9505V63.1424C81.0536 64.3978 81.0243 64.4645 80.4279 64.5355L80.0984 64.5772L80.0734 64.6022C80.0025 64.6731 79.9899 64.7899 80.0066 64.8733C80.0233 64.9651 80.065 65.0318 80.1234 65.0652L80.1484 65.0778H80.1735C80.7658 65.0526 81.1578 65.0443 81.6542 65.0443C82.1213 65.0443 82.526 65.0569 83.1098 65.0778H83.1349L83.1599 65.0694C83.2642 65.0193 83.2808 64.8775 83.2851 64.8316C83.2934 64.7232 83.2601 64.6356 83.1975 64.5939L82.8554 64.5397C82.259 64.4688 82.2298 64.4062 82.2298 63.1466V58.9546C82.2298 57.6825 82.2631 57.6032 82.8512 57.5532H82.8595Z" fill="white"/>
<path d="M81.6572 55.8158C82.0785 55.8158 82.3829 55.4946 82.3829 55.0525C82.3829 54.7105 82.0909 54.3477 81.6572 54.3477C81.4444 54.3477 81.2484 54.4268 81.1108 54.5728C80.9773 54.7105 80.9064 54.8982 80.9147 55.0942C80.9273 55.5322 81.2151 55.8158 81.653 55.8158H81.6572Z" fill="white"/>
<path d="M98.1858 60.5994L97.2431 60.0113C96.8886 59.7903 96.2922 59.3189 96.2922 58.6515C96.2922 58.2011 96.459 57.4503 97.5894 57.4503C98.6196 57.4503 98.9325 58.1218 99.0909 58.7058L99.1118 58.7475C99.1576 58.8018 99.2327 58.8268 99.3203 58.8226C99.4037 58.8184 99.5164 58.7851 99.5707 58.7017L99.5868 58.6766V58.6432C99.5868 58.1594 99.4873 57.4879 99.3703 57.1709L99.3453 57.1041H99.2745C99.1993 57.1041 99.045 57.0833 98.8865 57.0374C98.5153 56.9373 98.0982 56.8789 97.7645 56.8789C96.2672 56.8789 95.2578 57.734 95.2578 59.0061C95.2578 60.0322 95.9752 60.7204 96.5757 61.1167L97.6937 61.8465C98.5404 62.3888 98.6112 62.9352 98.6112 63.4066C98.6112 63.9822 98.2525 64.6537 97.2431 64.6537C96.0586 64.6537 95.5413 63.7403 95.3203 62.9769L95.3036 62.9478C95.2661 62.8935 95.1994 62.8602 95.1159 62.8602C95.0408 62.8602 94.9157 62.8893 94.849 62.9811L94.8281 63.0103V63.0479C94.8531 63.5817 95.0033 64.4534 95.1618 64.7413L95.1743 64.7663L95.1994 64.783C95.4288 64.9165 96.0795 65.2335 97.0888 65.2335C98.6529 65.2335 99.7003 64.3159 99.7003 62.9519C99.7003 62.0051 99.2035 61.2376 98.1775 60.6036L98.1858 60.5994Z" fill="white"/>
<path d="M118.413 56.7435L118.38 56.756L118.363 56.7852C118.221 57.0313 118.18 57.0646 117.538 57.0646H112.708C112.177 57.0646 111.923 57.048 111.873 56.7852V56.756L111.843 56.7352C111.76 56.6476 111.548 56.6809 111.489 56.7185L111.452 56.7435L111.444 56.7893C111.364 57.2607 111.184 58.0073 111.001 58.5287L110.984 58.5704L111.005 58.6121C111.043 58.6872 111.126 58.7498 111.223 58.7707C111.31 58.7915 111.401 58.7748 111.465 58.7289L111.485 58.7122L111.498 58.6872C111.618 58.4161 111.731 58.1617 112.002 57.9114C112.26 57.6736 112.845 57.6444 113.379 57.6444H114.025C114.108 57.6444 114.234 57.6444 114.255 57.6611C114.271 57.682 114.271 57.803 114.271 57.9156V63.1794C114.271 64.4433 114.201 64.4974 113.637 64.5475L113.216 64.585L113.17 64.6017C113.095 64.6476 113.053 64.7394 113.057 64.8478C113.057 64.9313 113.095 65.0355 113.179 65.0772L113.204 65.0897H113.228C113.98 65.0647 114.393 65.0564 114.864 65.0564C115.335 65.0564 115.76 65.0688 116.398 65.0897H116.423L116.448 65.0772C116.553 65.0271 116.57 64.8811 116.574 64.8353C116.582 64.7268 116.549 64.6434 116.487 64.6017L116.061 64.5475C115.477 64.4974 115.452 64.4349 115.452 63.1794V57.8989C115.452 57.7904 115.452 57.682 115.464 57.6611C115.485 57.6444 115.606 57.6444 115.69 57.6444H116.524C117.154 57.6444 117.579 57.7362 117.829 57.9197C117.879 57.9573 118.005 58.1074 118.079 58.7038V58.7331L118.104 58.7581C118.172 58.8374 118.292 58.8541 118.376 58.8415C118.476 58.829 118.55 58.7831 118.585 58.7122L118.597 58.683V58.6538C118.559 58.316 118.643 57.3692 118.767 56.902L118.78 56.8645L118.763 56.8269C118.705 56.7102 118.505 56.7059 118.418 56.7435H118.413Z" fill="white"/>
<path d="M136.027 64.5375C135.593 64.4873 135.455 64.3706 135.113 63.3571L133.449 58.4727C133.291 58.0056 133.124 57.5176 132.986 57.0546C132.953 56.9419 132.849 56.8711 132.707 56.8711H132.657L132.623 56.9086C132.49 57.0629 132.306 57.2506 132.06 57.3215L131.968 57.3466L131.984 57.4383C132.015 57.5968 131.951 57.8053 131.794 58.2183L130.592 61.3966C130.258 62.2934 129.991 62.9441 129.799 63.4196C129.708 63.649 129.624 63.8451 129.557 64.0202C129.39 64.4415 129.14 64.5166 128.94 64.5333L128.519 64.5708L128.494 64.5916C128.44 64.6375 128.41 64.7168 128.414 64.8086C128.414 64.892 128.448 64.9963 128.527 65.0504L128.556 65.0713L128.815 65.0589C129.099 65.0463 129.415 65.0337 129.716 65.0337L130.162 65.0421C130.475 65.0463 130.725 65.0546 130.933 65.0672H130.963L130.988 65.0589C131.067 65.0213 131.121 64.9379 131.13 64.8377C131.138 64.7335 131.1 64.6333 131.03 64.5833L131.005 64.5666L130.588 64.5291C130.342 64.5082 130.342 64.4665 130.342 64.3956C130.342 64.3247 130.375 64.1078 130.596 63.4529L131.009 62.2183C131.071 62.0306 131.088 62.0056 131.355 62.0056H133.132C133.444 62.0056 133.449 62.0181 133.516 62.2267L134.037 63.8284C134.104 64.0369 134.183 64.2872 134.183 64.4206C134.183 64.4456 134.104 64.5082 133.866 64.5291L133.499 64.5666L133.479 64.5833C133.411 64.6333 133.374 64.7209 133.382 64.8252C133.39 64.9295 133.44 65.0171 133.516 65.0546L133.541 65.0672L133.766 65.0589C134.074 65.0463 134.458 65.0296 134.917 65.0296C135.455 65.0296 135.877 65.0421 136.335 65.0672H136.377L136.406 65.0421C136.477 64.9837 136.502 64.8669 136.498 64.7877C136.498 64.6959 136.461 64.625 136.397 64.5833L136.031 64.5291L136.027 64.5375ZM133.194 61.3132C133.194 61.3132 133.14 61.334 132.982 61.334H131.534C131.48 61.334 131.389 61.334 131.342 61.3257C131.351 61.2882 131.372 61.2256 131.385 61.1881L132.122 59.1401C132.197 58.9357 132.265 58.7647 132.314 58.6437C132.368 58.7814 132.428 58.9607 132.481 59.1234L133.136 61.1005C133.178 61.2215 133.194 61.2923 133.19 61.309L133.194 61.3132Z" fill="white"/>
<path d="M155.807 57.0318H155.773C155.39 57.0568 155.085 57.0694 154.568 57.0694C154.151 57.0694 153.763 57.061 153.183 57.0318H153.162L153.141 57.0401C153.071 57.0694 153.016 57.1403 153.003 57.232C152.987 57.3404 153.02 57.4489 153.087 57.5115L153.112 57.5324L153.342 57.5574C153.734 57.6074 153.942 57.6658 153.996 57.7451C154.063 57.8494 154.217 58.2915 154.217 60.1267V62.646C154.217 62.7461 154.217 62.8629 154.213 62.9505C153.817 62.5376 153.4 62.0746 152.887 61.4989L151.248 59.6596L151.227 59.6387C150.067 58.3373 149.404 57.4823 149.253 57.1027L149.224 57.0234L149.141 57.036C148.999 57.0568 148.807 57.0735 148.615 57.0735C148.411 57.0735 147.785 57.0735 147.293 57.036H147.264L147.239 57.0485C147.172 57.0818 147.126 57.1528 147.114 57.2362C147.097 57.3404 147.126 57.4447 147.19 57.5115L147.214 57.5365L147.448 57.5615C147.76 57.6032 147.99 57.6908 148.115 57.8118C148.336 58.0537 148.344 58.2665 148.344 58.5918V62.0913C148.344 62.6627 148.344 63.9933 148.198 64.3728C148.177 64.4187 148.094 64.5062 147.764 64.548L147.411 64.5897L147.385 64.6148C147.331 64.6689 147.302 64.7565 147.31 64.8483C147.318 64.9401 147.36 65.0193 147.423 65.0652L147.452 65.0861H147.489C147.902 65.0611 148.215 65.0485 148.708 65.0485C149.17 65.0485 149.592 65.0611 150.079 65.0819H150.117L150.147 65.0611C150.205 65.0193 150.242 64.9526 150.255 64.8734C150.267 64.7858 150.246 64.6898 150.192 64.6189L150.163 64.5814L149.75 64.5397C149.42 64.5146 149.266 64.4354 149.233 64.3687C149.108 64.1434 149.032 63.2758 149.032 61.9828V59.4176C149.032 59.2424 149.032 59.0213 149.053 58.8545C149.249 59.0756 149.563 59.4469 149.846 59.7806C150.025 59.9933 150.188 60.1851 150.296 60.3103L153.024 63.4177C153.93 64.4479 154.364 64.9609 154.526 65.1862L154.556 65.2321H154.61C154.768 65.2321 154.889 65.1569 154.93 65.0318L154.938 65.0109V64.9859C154.918 64.8483 154.901 64.3812 154.901 62.938V59.9683C154.901 59.3676 154.893 58.1121 155.068 57.7492C155.085 57.7201 155.227 57.6241 155.648 57.5574L155.848 57.5281L155.873 57.5031C155.931 57.4447 155.961 57.3488 155.952 57.2528C155.944 57.1653 155.898 57.0902 155.832 57.0485L155.803 57.0318H155.807Z" fill="white"/>
<path d="M172.006 60.6186C171.956 60.6103 171.927 60.602 171.905 60.5936C172.497 60.3016 173.069 59.8679 173.069 58.9335C173.069 58.2244 172.731 57.6697 172.118 57.3694C171.526 57.0649 170.725 57.0273 170.095 57.0273C169.09 57.0273 168.26 57.0566 167.555 57.1233L167.518 57.1359C167.442 57.1733 167.392 57.2526 167.384 57.3527C167.376 57.457 167.413 57.5529 167.488 57.6071L167.514 57.6238L167.922 57.6614C168.347 57.6989 168.402 57.8157 168.402 58.7V63.1713C168.402 64.4434 168.36 64.4477 167.843 64.5394L167.597 64.5811L167.572 64.602C167.514 64.6604 167.484 64.7604 167.5 64.8647C167.514 64.9565 167.559 65.0274 167.618 65.0608L167.642 65.0733L168.026 65.0608C168.33 65.0483 168.648 65.0358 169.019 65.0358C169.286 65.0358 169.582 65.0483 169.845 65.0566C170.07 65.065 170.275 65.0733 170.428 65.0733C172.485 65.0733 173.662 64.2016 173.662 62.6833C173.662 61.2943 172.577 60.7229 172.001 60.6144L172.006 60.6186ZM170.079 60.4893C169.895 60.4977 169.641 60.506 169.594 60.4643C169.573 60.4434 169.573 60.3433 169.573 60.2599V57.87C169.573 57.6906 169.603 57.6823 169.678 57.6572C169.77 57.6154 169.937 57.5946 170.178 57.5946C170.566 57.5946 171.83 57.7031 171.83 59.0795C171.83 60.0389 171.343 60.4351 170.083 60.481L170.079 60.4893ZM170.645 64.5019C170.224 64.5019 169.962 64.4101 169.794 64.2099C169.573 63.9513 169.573 63.2339 169.573 62.9961V61.2568C169.573 61.1024 169.573 61.0524 170.153 61.0524C172.101 61.0524 172.394 62.2495 172.394 62.9586C172.394 64.3017 171.301 64.5019 170.649 64.5019H170.645Z" fill="white"/>
<path d="M193.484 57.0443L193.455 57.0277H193.421C193.012 57.0527 192.695 57.0651 192.191 57.0651C191.74 57.0651 191.302 57.0527 190.856 57.0277H190.822L190.793 57.0443C190.735 57.0818 190.697 57.1528 190.684 57.2362C190.672 57.328 190.693 57.4155 190.748 57.4822L190.777 57.5157L191.114 57.5407C191.382 57.5615 191.561 57.6324 191.623 57.7367C191.702 57.8744 191.832 58.3707 191.832 60.1225V61.4781C191.832 62.8587 191.44 64.5062 189.583 64.5062C188.024 64.5062 187.298 63.5386 187.298 61.4656V58.9255C187.298 57.67 187.331 57.5949 187.907 57.5448L188.216 57.5198L188.237 57.5031C188.299 57.4614 188.332 57.378 188.324 57.2737C188.32 57.1861 188.282 57.0818 188.199 57.036L188.173 57.0234H188.144C187.59 57.0485 187.194 57.061 186.701 57.061C186.209 57.061 185.813 57.0485 185.246 57.0234H185.216L185.191 57.036C185.112 57.0777 185.075 57.1861 185.071 57.2695C185.067 57.3697 185.096 57.4531 185.158 57.4948L185.183 57.5115L185.505 57.5365C186.084 57.5865 186.118 57.6617 186.118 58.9171V61.695C186.118 63.1216 186.414 64.0016 187.068 64.5522C187.59 64.9985 188.353 65.2237 189.338 65.2237C190.267 65.2237 191.156 64.8817 191.661 64.3311C192.237 63.7138 192.512 62.7712 192.512 61.4448V60.1141C192.512 59.5177 192.512 58.1246 192.666 57.7575C192.72 57.6449 192.916 57.5574 193.17 57.5324L193.496 57.5073L193.525 57.4739C193.579 57.4072 193.604 57.3029 193.592 57.2154C193.579 57.1403 193.538 57.0735 193.476 57.036L193.484 57.0443Z" fill="white"/>
<path d="M210.886 63.1629C210.799 63.1212 210.636 63.0962 210.544 63.1755L210.515 63.2172C210.26 63.8679 209.96 64.2224 209.785 64.3309C209.618 64.4268 209.368 64.4727 208.4 64.4727C207.433 64.4727 207.274 64.3141 207.194 64.2349C207.007 64.0389 206.973 63.7469 206.973 63.0336V58.9377C206.973 57.6864 207.007 57.6071 207.599 57.5571L207.908 57.532L207.929 57.5154C207.991 57.4737 208.024 57.3903 208.016 57.2818C208.016 57.2401 207.999 57.0941 207.896 57.0399L207.871 57.0273H207.842C207.291 57.0524 206.878 57.0649 206.398 57.0649C205.918 57.0649 205.531 57.0524 204.871 57.0273H204.842L204.817 57.0399C204.713 57.0941 204.697 57.2401 204.697 57.2818C204.693 57.3861 204.722 57.4737 204.784 57.5112L204.805 57.5279L205.126 57.5529C205.764 57.603 205.798 57.6697 205.798 58.9335V63.1713C205.798 64.4143 205.769 64.4768 205.184 64.5394L204.792 64.577L204.767 64.602C204.709 64.6604 204.683 64.7604 204.701 64.869C204.717 64.9607 204.759 65.0316 204.817 65.0608L204.842 65.0733H204.871C205.543 65.0483 205.914 65.0358 206.398 65.0358H207.478C208.763 65.0358 209.831 65.0483 210.402 65.0733H210.469L210.498 65.0191C210.665 64.7021 211.003 63.4883 211.003 63.3215C211.003 63.2881 210.991 63.213 210.882 63.1588L210.886 63.1629Z" fill="white"/>
<path d="M71.2246 15H70.5781V65.19H71.2246V15Z" fill="white"/>
<path d="M5.51128 28.5415C7.04623 28.5415 8.1599 27.382 8.1599 25.7845C8.1599 24.5415 7.09628 23.2109 5.51128 23.2109C4.74799 23.2109 4.0556 23.4946 3.55508 24.016C3.06289 24.5206 2.80846 25.1963 2.82931 25.9179C2.87519 27.4862 3.95549 28.5415 5.51128 28.5415Z" fill="white"/>
<path d="M44.7333 28.7075C46.2516 28.7075 47.3528 27.573 47.3528 26.013C47.3528 24.6991 46.3517 23.2852 44.7333 23.2852C44.0034 23.2852 43.3361 23.5813 42.848 24.1152C42.3642 24.6533 42.1097 25.4165 42.1849 26.0881C42.1849 27.7065 43.1608 28.7075 44.7333 28.7075Z" fill="white"/>
<path d="M52.8715 28.7075C54.3522 28.7075 55.3866 27.598 55.3866 26.013C55.3866 24.6741 54.4482 23.2852 52.8715 23.2852C51.2114 23.2852 50.2188 24.7158 50.2188 26.1089C50.2646 27.6897 51.3032 28.7075 52.8715 28.7075Z" fill="white"/>
<path d="M10.5226 54.2732L10.4267 54.2063L9.29634 54.0479C7.71968 53.8602 7.69048 53.856 7.69048 50.1062V37.0885C7.69048 33.2469 7.74888 33.2428 9.27132 33.1135L10.239 33.0384L10.4017 32.9925L10.5185 32.9258C10.8312 32.7214 10.9981 32.3293 10.9648 31.8497C10.9272 31.3407 10.6978 30.9529 10.3182 30.7652L10.1264 30.7109H10.0263C8.33283 30.786 7.04815 30.8236 5.51738 30.8236C3.98661 30.8236 2.73114 30.786 0.845825 30.7152L0.724859 30.736L0.595564 30.7902C0.111721 31.0322 0.0199548 31.6077 0.00327543 31.8497C-0.0259225 32.3335 0.14092 32.7214 0.470428 32.9467L0.587224 33.0342L1.69671 33.1218C3.21914 33.2511 3.28171 33.2552 3.28171 37.0968V50.1146C3.28171 53.8685 3.25251 53.8685 1.67586 54.0562L0.6915 54.1772L0.487118 54.2523L0.345303 54.3732C-0.0759747 54.7987 0.00744524 55.4243 0.0283045 55.5453C0.0950421 55.9624 0.311934 56.2711 0.653952 56.4421L0.845825 56.4963H0.945931C2.74365 56.4212 4.00747 56.3837 5.52572 56.3837C7.04398 56.3837 8.23689 56.4212 10.0346 56.4921L10.2474 56.4712L10.3767 56.4171C10.8605 56.171 10.9522 55.5911 10.9689 55.3534C10.9939 54.8821 10.8312 54.49 10.5268 54.2856L10.5226 54.2732Z" fill="white"/>
<path d="M26.3776 41.8594L23.4496 40.0283C22.411 39.3859 20.6759 38.0262 20.6759 36.1326C20.6759 34.6018 21.3098 32.779 24.3213 32.779C27.3328 32.779 28.1128 34.5434 28.6342 36.4537L28.7092 36.5997L28.7468 36.6539C28.9471 36.8958 29.2598 37.0334 29.6311 37.0334C30.0023 37.0334 30.5362 36.875 30.8281 36.437L30.899 36.2535L30.9116 36.095C30.9116 34.4308 30.5403 32.2785 30.2109 31.3859L30.0399 30.9229H29.5476C29.3224 30.9229 28.8761 30.8561 28.4507 30.7268C27.5539 30.485 26.1399 30.2305 24.8677 30.2305C19.9835 30.2305 16.7009 33.0417 16.7009 37.2254C16.7009 40.583 19.0199 42.8229 20.9678 44.1075L24.4464 46.3807C26.7947 47.8907 27.1201 49.4465 27.1201 50.9021C27.1201 52.6415 25.9272 54.4017 23.2577 54.4017C19.8208 54.4017 18.3025 51.6905 17.6185 49.3839L17.5601 49.2672C17.3683 48.9793 17.0429 48.8208 16.6466 48.8208C16.4715 48.8208 15.8708 48.8625 15.4788 49.4131L15.3828 49.655V49.7969C15.4662 51.5695 15.9501 54.289 16.484 55.2734L16.6007 55.4111L16.7259 55.4986C17.4767 55.9325 19.5705 56.946 22.7864 56.946C27.8667 56.946 31.2828 53.9428 31.2828 49.4715C31.2828 46.3807 29.6769 43.8907 26.3818 41.8511L26.3776 41.8594Z" fill="white"/>
<path d="M61.808 31.7305C61.7455 31.3467 61.5369 31.0464 61.1866 30.8253L60.9363 30.7461H60.8028C59.4097 30.8336 58.4546 30.8628 57.0281 30.8628C55.6016 30.8628 54.2585 30.8295 52.832 30.7502H52.8028L52.6067 30.7961L52.4608 30.8754C52.1771 31.0631 51.9853 31.3926 51.9269 31.7805C51.8727 32.1976 51.9811 32.598 52.223 32.8774L52.4274 33.1277L53.6578 33.2278C54.5129 33.2945 54.8257 33.524 54.8716 33.6032C55.0093 33.8451 55.4597 35.0798 55.4597 40.7565V44.9359C55.4597 48.9985 54.3294 53.8411 48.9571 53.8411C44.444 53.8411 42.3418 51.0006 42.3418 44.9026V37.0485C42.3418 33.3571 42.3961 33.353 43.8225 33.232L44.7652 33.1527L44.9487 33.0985L45.0656 33.0277C45.3867 32.8066 45.5536 32.4061 45.5243 31.9306C45.5118 31.7429 45.4326 31.1089 44.8445 30.8045L44.6317 30.7502H44.5233C42.6714 30.8337 41.5076 30.8628 40.0854 30.8628C38.7423 30.8628 37.5076 30.8337 35.5389 30.7502H35.5139L35.3512 30.7795L35.2303 30.8295C34.7005 31.0965 34.6171 31.7346 34.6046 31.9223C34.5753 32.4187 34.7589 32.8149 35.1301 33.061L35.2386 33.1361L36.3481 33.2278C37.7662 33.3488 37.8246 33.353 37.8246 37.0444V45.6283C37.8246 50.1205 38.8131 53.0319 40.9279 54.7879C42.6213 56.2353 45.078 56.9694 48.2272 56.9694C51.3763 56.9694 54.0916 55.8557 55.7309 54.0705C57.5828 52.0893 58.4796 49.0777 58.4796 44.8566V40.7524C58.4796 39.255 58.4796 34.6919 58.9217 33.6491C58.976 33.5281 59.3805 33.2821 60.1062 33.2237L61.2992 33.1236L61.5036 32.8774C61.7539 32.5771 61.8664 32.135 61.8039 31.7221L61.808 31.7305Z" fill="white"/>
</g>
<defs>
<clipPath id="clip0_1983_13360">
<rect width="211" height="80" fill="white"/>
</clipPath>
</defs>
</svg>
